<svg id="图层_1" data-name="图层 1" xmlns="http://www.w3.org/2000/svg" viewBox="0 0 100 100"><defs><style>.cls-1{fill:#ebf5ff;}.cls-2{fill:none;}.cls-3{fill:#6ebbf9;}</style></defs><title>成本测算icon</title><circle class="cls-1" cx="49.33" cy="49.75" r="45"/><rect class="cls-2" x="23.92" y="24.6" width="51.34" height="51.4"/><path class="cls-3" d="M69.66,57.51a2.42,2.42,0,0,0-2.42,2.39v7.76H31.42V31.85h7.76a2.43,2.43,0,0,0,2.58-2.43A2.38,2.38,0,0,0,39.22,27H29a2.38,2.38,0,0,0-2.38,2.38V70.08A2.32,2.32,0,0,0,29,72.47H69.66a2.36,2.36,0,0,0,2.39-2.39V59.9a2.44,2.44,0,0,0-.7-1.69,2.39,2.39,0,0,0-1.69-.7Zm0,0"/><path class="cls-3" d="M47.82,38H69.77a2,2,0,0,1,2.28,2.27,2,2,0,0,1-2.28,2.27H47.82a2,2,0,0,1-2.27-2.27A2,2,0,0,1,47.82,38Zm0,0"/><path class="cls-3" d="M56.52,51.27v-22a2.28,2.28,0,0,1,4.55,0v22a2.28,2.28,0,0,1-4.55,0Zm0,0"/></svg>