<svg id="图层_1" data-name="图层 1" xmlns="http://www.w3.org/2000/svg" viewBox="0 0 100 100"><defs><style>.cls-1{fill:#ebf5ff;}.cls-2{fill:#6ebbf9;}</style></defs><title>成本测算icon</title><circle class="cls-1" cx="49.27" cy="50.17" r="45"/><path class="cls-2" d="M72.23,58.94a2.75,2.75,0,0,0-2.74,2.69V70.4H29.06V30h8.76a2.75,2.75,0,0,0,2-.74,2.7,2.7,0,0,0-2-4.69H26.32a2.68,2.68,0,0,0-2.69,2.69V73.13a2.62,2.62,0,0,0,2.69,2.69H72.23a2.61,2.61,0,0,0,1.92-.77,2.69,2.69,0,0,0,.77-1.92V61.63a2.7,2.7,0,0,0-2.69-2.69Zm0,0"/><path class="cls-2" d="M44.74,41.69s0,0,0,0a2.06,2.06,0,0,0,.43.64h0L55.38,52.6a2.05,2.05,0,0,0,2.91-2.9l-6.18-6.42H71.23a2.29,2.29,0,0,0,0-4.56H52l6.35-6.51a2.05,2.05,0,0,0,0-2.9,2,2,0,0,0-1.46-.61,2.06,2.06,0,0,0-1.44.59L45.19,39.46a2,2,0,0,0-.45,2.23Zm0,0"/></svg>