<svg id="图层_1" data-name="图层 1" xmlns="http://www.w3.org/2000/svg" viewBox="0 0 100 100"><defs><style>.cls-1{fill:#ebf5ff;}.cls-2{fill:#6ebbf9;}</style></defs><title>成本测算icon</title><circle class="cls-1" cx="48.91" cy="49.98" r="45"/><path class="cls-2" d="M29.61,34A2.4,2.4,0,0,1,32,31.61H44.09v-2.4a2.4,2.4,0,0,1,2.41-2.39h4.83a2.4,2.4,0,0,1,2.41,2.4v2.39H65.8A2.42,2.42,0,0,1,68.22,34v2.4H29.61ZM65.8,41.19V70.74a2.4,2.4,0,0,1-2.41,2.4H34.44A2.4,2.4,0,0,1,32,70.74V38.8H65.8ZM41.67,46a2.41,2.41,0,0,0-4.82,0V66a2.42,2.42,0,0,0,4.83,0V46Zm9.66,0a2.42,2.42,0,0,0-4.83,0V66a2.42,2.42,0,0,0,4.83,0ZM61,46a2.42,2.42,0,0,0-4.83,0V66A2.42,2.42,0,0,0,61,66Zm0,0"/></svg>