<svg t="1667269840126" class="icon" viewBox="0 0 1024 1024" version="1.1" xmlns="http://www.w3.org/2000/svg" p-id="2530" width="200" height="200"><path d="M307.761596 416.00075L416.00075 307.697596l-189.182522-189.358521L345.673299 0.004H0.283998L0.004 345.097304l118.055078-118.919071L307.761596 416.00075z m598.179326 381.805017L716.206405 607.99925 607.99925 716.286404l189.182522 189.374521L678.3587 1023.996h345.389302L1023.996 678.902696l-118.055078 118.903071zM716.302404 416.00075l189.342521-189.182522L1023.996 345.6573V0.307998L678.926696 0.004 797.837767 118.083077 607.99925 307.777595 716.302404 416.00075zM307.681596 607.99925L118.339075 797.205772 0.004 678.3507v345.381302l345.093304 0.263998-118.919071-118.055078L416.00075 716.238404 307.681596 607.99925z" p-id="2531" fill="#409eff"></path></svg>