<svg id="图层_1" data-name="图层 1" xmlns="http://www.w3.org/2000/svg" viewBox="0 0 100 100"><defs><style>.cls-1{fill:#ebf5ff;}.cls-2{fill:none;}.cls-3{fill:#6ebbf9;}</style></defs><title>成本测算icon</title><circle class="cls-1" cx="49.11" cy="49.69" r="45"/><rect class="cls-2" x="24.77" y="28.09" width="48.78" height="45.11"/><path class="cls-3" d="M71.41,67.5V54.2a2.32,2.32,0,0,0-4.64,0V65.63H31.45V54.2a2.32,2.32,0,0,0-4.64,0V67.5a2.78,2.78,0,0,0,2.77,2.77H68.65a2.78,2.78,0,0,0,2.76-2.77Zm0,0"/><path class="cls-3" d="M47.48,55.58a2.32,2.32,0,0,0,3.27,0l8.64-8.64a2.32,2.32,0,1,0-3.28-3.27L51.6,48.18V31.6a2.49,2.49,0,0,0-5,0V48.18l-4.52-4.52a2.32,2.32,0,1,0-3.27,3.28Zm0,0"/></svg>