<svg id="图层_1" data-name="图层 1" xmlns="http://www.w3.org/2000/svg" viewBox="0 0 100 100"><defs><style>.cls-1{fill:#ebf5ff;}.cls-2{fill:#6ebbf9;}</style></defs><title>成本测算icon</title><circle class="cls-1" cx="47.94" cy="47.81" r="45"/><path class="cls-2" d="M69.75,38.3,57.45,26a1.94,1.94,0,0,0-2.75,0c-.17.16-3.72,3.78-2.35,8.55l-5.57,5.56c-3.05-.92-10.92-2.52-16.72,3.28a1.94,1.94,0,0,0,0,2.75l8.39,8.39L26.09,66.9a2,2,0,0,0,2.76,2.76L41.21,57.3l8.39,8.39a2,2,0,0,0,1.38.57,2,2,0,0,0,1.37-.57c5.8-5.8,4.2-13.67,3.28-16.72l5.56-5.56c4.77,1.36,8.39-2.19,8.56-2.35a2,2,0,0,0,0-2.76Zm-8.22,1.08a2,2,0,0,0-2.21.39L52,47.08a2,2,0,0,0-.42,2.12,17.33,17.33,0,0,1,1,5,11.51,11.51,0,0,1-1.77,7.19l-8.26-8.26L34.32,44.9c5.22-3.52,11.92-.87,12.23-.74a2,2,0,0,0,2.12-.43L56,36.42a1.94,1.94,0,0,0,.38-2.2,4.49,4.49,0,0,1,0-3.79l9,9a4.49,4.49,0,0,1-3.79,0ZM50,49.92A7.8,7.8,0,0,1,50.61,53a1.71,1.71,0,0,1-3.41-.1,4.3,4.3,0,0,0-.33-1.58A1.71,1.71,0,0,1,50,49.92Zm0,0"/></svg>