<svg id="图层_1" data-name="图层 1" xmlns="http://www.w3.org/2000/svg" viewBox="0 0 100 100"><defs><style>.cls-1{fill:#ebf5ff;}.cls-2{fill:#6ebbf9;}</style></defs><title>成本测算icon</title><circle class="cls-1" cx="50.22" cy="49.67" r="45"/><path class="cls-2" d="M73.18,58.43a2.74,2.74,0,0,0-2.74,2.7v8.76H30V29.45h8.77a2.71,2.71,0,0,0,2-.74,2.75,2.75,0,0,0,.86-2A2.7,2.7,0,0,0,38.81,24H27.27a2.7,2.7,0,0,0-2.7,2.69V72.62a2.91,2.91,0,0,0,.77,1.93,2.88,2.88,0,0,0,1.93.77H73.18a2.66,2.66,0,0,0,2.69-2.7V61.13a2.7,2.7,0,0,0-2.69-2.7Zm0,0"/><path class="cls-2" d="M74.08,39.7l0,0a2.22,2.22,0,0,0-.42-.64h0L63.43,28.8a2,2,0,1,0-2.9,2.89l6.17,6.42H47.59a2.29,2.29,0,0,0,0,4.56H66.81l-6.35,6.51a2.05,2.05,0,0,0,2.88,2.92L73.62,41.93a2.05,2.05,0,0,0,.46-2.23Zm0,0"/></svg>