<svg id="图层_1" data-name="图层 1" xmlns="http://www.w3.org/2000/svg" viewBox="0 0 100 100"><title>成本测算icon-查询</title><circle cx="49.84" cy="49.45" r="45" style="fill:#ebf5ff"/><rect x="26.22" y="26.64" width="43.88" height="41.88" style="fill:none"/><path d="M60.14,68.64H30V30.25H41a2.73,2.73,0,0,0,2.73-2.73h0A2.73,2.73,0,0,0,41,24.79H28.9a4.37,4.37,0,0,0-4.37,4.37V69.75a4.37,4.37,0,0,0,4.37,4.37H61.3a4.37,4.37,0,0,0,4.37-4.37v-3A2.77,2.77,0,0,0,62.91,64h0a2.77,2.77,0,0,0-2.77,2.76v1.87Zm0,0" style="fill:#6ebbf9"/><path d="M68.14,55.93a17,17,0,1,0-4.27,3.48l6.53,7a2.75,2.75,0,0,0,3.88.12h0a2.75,2.75,0,0,0,.12-3.88Zm-24-11.15a11.39,11.39,0,1,1,11.4,11.39,11.41,11.41,0,0,1-11.4-11.39Zm0,0" style="fill:#6ebbf9"/></svg>