<svg id="图层_1" data-name="图层 1" xmlns="http://www.w3.org/2000/svg" viewBox="0 0 100 100"><defs><style>.cls-1{fill:#ebf5ff;}.cls-2{fill:#6ebbf9;}</style></defs><title>成本测算icon</title><circle class="cls-1" cx="50.42" cy="51.24" r="45"/><path class="cls-2" d="M45.29,58.47l8.39,8.39a2,2,0,0,0,2.76,0c5.79-5.8,4.19-13.67,3.27-16.72l5.57-5.56c4.76,1.36,8.39-2.19,8.55-2.35a2,2,0,0,0,0-2.76h0L61.53,27.18a1.94,1.94,0,0,0-2.75,0c-.17.16-3.71,3.79-2.35,8.55l-5.57,5.56c-3-.92-10.92-2.52-16.72,3.28a1.94,1.94,0,0,0,0,2.75l8.4,8.39ZM65.61,40.55a1.94,1.94,0,0,0-2.2.39L56.1,48.25a2,2,0,0,0-.43,2.12,17.24,17.24,0,0,1,1,5,11.45,11.45,0,0,1-1.78,7.19l-8.26-8.26L38.4,46.07c5.22-3.52,11.93-.86,12.23-.74a1.94,1.94,0,0,0,2.12-.43l7.31-7.31a1.94,1.94,0,0,0,.39-2.2,4.49,4.49,0,0,1,0-3.79l9,8.95a4.49,4.49,0,0,1-3.79,0ZM54.07,51.09a7.73,7.73,0,0,1,.63,3.07,1.71,1.71,0,0,1-3.41-.1A4.3,4.3,0,0,0,51,52.48a1.7,1.7,0,0,1,3.11-1.39Zm0,0"/><path class="cls-2" d="M28.21,63.75H45.36a1.78,1.78,0,1,1,0,3.55H28.21a1.78,1.78,0,0,1,0-3.55Zm0,0"/><path class="cls-2" d="M35,74.1V57a1.57,1.57,0,0,1,1.78-1.77A1.56,1.56,0,0,1,38.56,57V74.1a1.56,1.56,0,0,1-1.77,1.77A1.57,1.57,0,0,1,35,74.1Zm0,0"/></svg>